<svg width="91" height="18" viewBox="0 0 91 18" fill="none" xmlns="http://www.w3.org/2000/svg">
<path d="M0.776001 17V0.679999H4.088V17H0.776001Z" fill="white"/>
<path d="M7.64319 17V0.679999H13.2352L17.1712 14.12H17.4112V0.679999H20.7232V17H15.2752L11.1952 3.56H10.9552V17H7.64319Z" fill="white"/>
<path d="M29.2998 3.272C27.5558 3.272 26.6838 3.848 26.6838 5C26.6838 5.512 26.8998 5.904 27.3318 6.176C27.7638 6.448 28.7718 6.84 30.3558 7.352C31.9558 7.864 33.0758 8.448 33.7158 9.104C34.3558 9.744 34.6758 10.736 34.6758 12.08C34.6758 13.792 34.1558 15.088 33.1158 15.968C32.0758 16.848 30.7158 17.288 29.0358 17.288C27.7878 17.288 26.2598 17.096 24.4518 16.712L23.5878 16.544L23.9238 13.976C26.0678 14.264 27.7078 14.408 28.8438 14.408C30.5398 14.408 31.3878 13.704 31.3878 12.296C31.3878 11.784 31.1878 11.384 30.7878 11.096C30.4038 10.808 29.6278 10.496 28.4598 10.16C26.6038 9.632 25.2918 9.008 24.5238 8.288C23.7718 7.552 23.3958 6.536 23.3958 5.24C23.3958 3.608 23.8918 2.392 24.8838 1.592C25.8758 0.791998 27.2358 0.391998 28.9638 0.391998C30.1478 0.391998 31.6518 0.551998 33.4758 0.871998L34.3398 1.04L34.0758 3.656C31.8198 3.4 30.2278 3.272 29.2998 3.272Z" fill="white"/>
<path d="M35.8745 3.608V0.679999H47.8745V3.608H43.5545V17H40.2425V3.608H35.8745Z" fill="white"/>
<path d="M53.2147 13.16C53.6947 13.992 54.5827 14.408 55.8787 14.408C57.1747 14.408 58.0547 13.992 58.5187 13.16C58.9987 12.312 59.2387 10.904 59.2387 8.936C59.2387 6.952 58.9987 5.512 58.5187 4.616C58.0387 3.72 57.1587 3.272 55.8787 3.272C54.5987 3.272 53.7187 3.72 53.2387 4.616C52.7587 5.512 52.5187 6.952 52.5187 8.936C52.5187 10.904 52.7507 12.312 53.2147 13.16ZM61.1107 15.272C60.1027 16.616 58.3587 17.288 55.8787 17.288C53.3987 17.288 51.6467 16.616 50.6227 15.272C49.6147 13.912 49.1107 11.792 49.1107 8.912C49.1107 6.032 49.6147 3.896 50.6227 2.504C51.6467 1.096 53.3987 0.391998 55.8787 0.391998C58.3587 0.391998 60.1027 1.096 61.1107 2.504C62.1347 3.896 62.6467 6.032 62.6467 8.912C62.6467 11.792 62.1347 13.912 61.1107 15.272Z" fill="white"/>
<path d="M75.8309 16.736C74.1349 17.104 72.6069 17.288 71.2469 17.288C69.8869 17.288 68.7989 17.12 67.9829 16.784C67.1669 16.448 66.5269 15.912 66.0629 15.176C65.5989 14.44 65.2789 13.576 65.1029 12.584C64.9269 11.592 64.8389 10.344 64.8389 8.84C64.8389 5.688 65.2789 3.496 66.1589 2.264C67.0549 1.016 68.6949 0.391998 71.0789 0.391998C72.4549 0.391998 74.0469 0.607998 75.8549 1.04L75.7589 3.68C74.1749 3.44 72.8549 3.32 71.7989 3.32C70.7589 3.32 70.0149 3.464 69.5669 3.752C69.1189 4.024 68.7829 4.552 68.5589 5.336C68.3509 6.12 68.2469 7.456 68.2469 9.344C68.2469 11.232 68.4629 12.544 68.8949 13.28C69.3429 14 70.2229 14.36 71.5349 14.36C72.8629 14.36 74.2709 14.248 75.7589 14.024L75.8309 16.736Z" fill="white"/>
<path d="M81.8302 17H78.5182V0.679999H81.8302V7.856L84.0382 7.616L86.7262 0.679999H90.4942L86.9422 8.864L90.5902 17H86.7742L84.0382 10.496L81.8302 10.736V17Z" fill="white"/>
</svg>
